<svg id="_x31_px" enable-background="new 0 0 24 24" height="512" viewBox="0 0 24 24" width="512" xmlns="http://www.w3.org/2000/svg"><g><path d="m7.854 17.844-.707-.707 1.47-1.47c.345-.352.812-.549 1.311-.551h.009c.5 0 .971.195 1.327.551.016.015.03.032.043.048.172.148.4.222.63.209.252-.015.477-.131.632-.326l.723-.893c.71-.892 2.205-.895 2.919.003l.68.849-.781.625-.68-.85c-.334-.42-1.025-.419-1.358-.001l-.723.893c-.327.41-.82.666-1.351.698-.539.033-1.059-.163-1.438-.536-.018-.017-.034-.036-.048-.055-.162-.141-.337-.259-.579-.216-.23.001-.445.091-.605.255z"/></g><g><path d="m15.5 20h-7c-.827 0-1.5-.673-1.5-1.5v-8c0-.827.673-1.5 1.5-1.5h7c.827 0 1.5.673 1.5 1.5v8c0 .827-.673 1.5-1.5 1.5zm-7-10c-.276 0-.5.224-.5.5v8c0 .276.224.5.5.5h7c.276 0 .5-.224.5-.5v-8c0-.276-.224-.5-.5-.5z"/></g><g><path d="m19 24h-14c-1.103 0-2-.897-2-2v-9h-2c-.561 0-1-.439-1-1 0-.265.108-.525.296-.713l11.354-11.144c.194-.19.505-.19.701 0l3.649 3.585v-2.228c0-.276.224-.5.5-.5h4c.276 0 .5.224.5.5v7.13l2.701 2.653c.191.192.299.452.299.717 0 .561-.439 1-1 1h-2v9c0 1.103-.897 2-2 2zm-7-22.799-11 10.796 2.5.003c.276 0 .5.224.5.5v9.5c0 .551.449 1 1 1h14c.551 0 1-.449 1-1v-9.5c0-.276.224-.5.5-.5h2.5c0-.002-.002-.005-.003-.006l-2.847-2.797c-.096-.094-.15-.223-.15-.357v-6.84h-3v2.92c0 .202-.121.383-.307.461-.185.079-.399.038-.544-.104z"/></g></svg>